<svg width="23" height="23" viewBox="0 0 23 23" fill="none" xmlns="http://www.w3.org/2000/svg">
<path d="M18.1983 4.76517C16.3548 2.9614 13.4077 2.96179 11.5646 4.76606L3.83477 12.496C2.43706 13.9266 2.46377 16.2194 3.89443 17.6172C5.30156 18.9919 7.54884 18.9919 8.95597 17.6172L15.9555 10.6176C16.8654 9.7077 16.8654 8.23235 15.9555 7.3224C15.0455 6.41245 13.5702 6.41245 12.6602 7.3224L5.96504 14.0176C5.73152 14.2594 5.73822 14.6447 5.98002 14.8782C6.21589 15.106 6.58982 15.106 6.8257 14.8782L13.5209 8.18302C13.9648 7.7577 14.6695 7.77286 15.0948 8.21683C15.5073 8.6474 15.5073 9.32646 15.0948 9.75702L8.09534 16.7565C7.14977 17.6886 5.62756 17.6777 4.69543 16.7321C3.77271 15.7961 3.77271 14.2926 4.69543 13.3566L12.4253 5.62669C13.8022 4.2493 16.0349 4.24891 17.4123 5.62576C18.7897 7.00261 18.7901 9.23537 17.4132 10.6128L9.68332 18.3427C9.42801 18.5613 9.39826 18.9455 9.61691 19.2009C9.83557 19.4562 10.2198 19.4859 10.4751 19.2673C10.4989 19.2469 10.5211 19.2247 10.5415 19.2009L18.2714 11.471C20.103 9.59903 20.0703 6.59672 18.1983 4.76517Z" fill="#5F5F5F"/>
</svg>
